<?xml version="1.0" encoding="UTF-8"?><svg id="Calque_1" xmlns="http://www.w3.org/2000/svg" viewBox="0 0 746.52 900.88"><g><path d="M116.98,336.5l7.19,58.49,7.43-58.49,14.62-95.04h29.24l-36.56,204.71h-29.24l-14.62-95.04-7.31-58.49-7.31,58.49-14.62,95.04h-29.24L0,241.45H29.24l14.62,95.04,7.42,58.49,7.19-58.49,14.62-95.04h29.24l14.62,95.04Z" style="fill:#fff;"/><path d="M220.59,351.12v73.11h51.18v21.93h-80.42V241.45h80.42v21.94h-51.18v65.8h36.56v21.93h-36.56Z" style="fill:#fff;"/><path d="M340.88,446.17h-51.18V241.45h43.86c36.9,0,62.38,15.08,62.38,51.18,0,26.61-11.77,37.92-33.13,43.86,22.74,7.54,36.55,20.68,36.55,51.18,0,36.09-22.38,58.49-58.48,58.49Zm29.24-153.53c0-28.91-22.39-29.25-51.18-29.25v65.8h14.62c24.22,0,36.56-11.88,36.56-36.55Zm-36.56,58.49h-14.62v73.11h14.62c25.25,0,36.56-10.97,36.56-36.55s-11.31-36.56-36.56-36.56Z" style="fill:#fff;"/></g><g><path d="M51.29,515.65c-14.17,0-21.93,8.34-21.93,22.28,0,12.68,6.62,22.51,14.62,28.91l36.55,29.24c14.96,12.1,29.24,30.39,29.24,56.55,0,30.39-20.45,47.86-51.18,47.86-38.27,0-56.32-24.79-58.49-60.55l29.24-7.31c1.03,21.13,7.08,43.86,29.24,43.86,14.62,0,21.93-7.31,21.93-21.93,0-18.39-11.31-27.99-21.93-36.56l-36.56-29.24c-12.57-9.83-22.05-26.05-22.05-47.76,0-30.39,20.56-49.34,51.29-49.34,36.21,0,55.86,19.99,58.49,53.23l-29.24,7.31c-1.26-19.41-8.57-36.55-29.24-36.55Z" style="fill:#fff;"/><path d="M183.69,700.48c-43.98,0-56.2-31.31-56.2-75.29v-58.37c0-43.98,12.22-75.17,56.2-75.17,41.24,0,54.49,26.73,54.49,67.86h-29.25c0-24.9-.8-43.87-25.24-43.87s-26.96,18.97-26.96,43.87v73.11c0,22.39,4.68,43.86,26.96,43.86s25.24-21.47,25.24-43.86v-7.31h29.25v7.31c0,40.66-13.48,67.86-54.49,67.86Z" style="fill:#fff;"/><path d="M286.84,603.38v95.05h-29.24v-204.71h29.24v87.73h51.18v-87.73h29.25v204.71h-29.25v-95.05h-51.18Z" style="fill:#fff;"/><path d="M505.72,558.37v74.26c0,41.13-14.85,67.86-56.43,67.86s-56.43-26.16-56.43-67.86v-74.26c0-41.69,14.51-66.71,56.43-66.71s56.43,25.59,56.43,66.71Zm-83.62-7.31v88.87c0,21.94,5.25,36.55,27.19,36.55s27.19-14.62,27.19-36.55v-88.87c0-21.93-5.25-35.41-27.19-35.41s-27.19,13.48-27.19,35.41Z" style="fill:#fff;"/><path d="M640.51,558.37v74.26c0,41.13-14.85,67.86-56.43,67.86s-56.43-26.16-56.43-67.86v-74.26c0-41.69,14.5-66.71,56.43-66.71s56.43,25.59,56.43,66.71Zm-83.62-7.31v88.87c0,21.94,5.25,36.55,27.19,36.55s27.19-14.62,27.19-36.55v-88.87c0-21.93-5.25-35.41-27.19-35.41s-27.19,13.48-27.19,35.41Z" style="fill:#fff;"/><path d="M666.1,493.72h29.24v182.77h51.17v21.94h-80.42v-204.71Z" style="fill:#fff;"/></g><g><path d="M0,0H28V174.96h48.99v21H0V0Z" style="fill:#fff;"/><path d="M104.76,195.96h-27.99L118.76,0h27.99l41.99,195.96h-28l-10.5-48.99h-34.99l-10.5,48.99Zm27.99-153.97l-14,83.98h27.99l-14-83.98Z" style="fill:#fff;"/></g><g><g><path d="M0,861.81v-76.47H26.97v5.42H6.83v28.97h14.38v5.11H6.83v36.97H0Z" style="fill:#fff;"/><path d="M110.56,861.81h-6.88c7.24-35.46,8.05-40.97,15.28-76.47h8.9l15.28,76.47h-6.92l-3.87-19.91h-17.84l-3.95,19.91Zm4.76-24.39h16.18l-8.14-45.06-8.04,45.06Z" style="fill:#fff;"/><path d="M226.32,839.64v-32.03c0-12.93,4.63-23.33,19.64-23.33,13.93,0,18.16,10.4,18.16,23.33v3.11h-6.52v-4.62c0-9.34-2.65-16.4-11.64-16.4-10.07,0-12.81,7.06-12.81,16.4v35.06c0,9.34,2.74,16.44,12.81,16.44,8.99,0,11.64-7.1,11.64-16.44v-5.24h6.52v3.73c0,12.84-3.87,23.38-18.16,23.38-15.37,0-19.64-10.53-19.64-23.38Z" style="fill:#fff;"/><path d="M358.86,861.81v-71.05h-15.06v-5.42h37.08v5.42h-15.19v71.05h-6.83Z" style="fill:#fff;"/><path d="M460.78,839.64v-32.03c0-12.93,4.72-23.33,19.73-23.33s19.74,10.4,19.74,23.33v32.03c0,12.84-4.36,23.38-19.74,23.38s-19.73-10.53-19.73-23.38Zm32.63,1.51v-35.06c0-9.06-2.83-16.4-12.9-16.4s-12.9,7.33-12.9,16.4v35.06c0,9.06,2.84,16.44,12.9,16.44s12.9-7.38,12.9-16.44Z" style="fill:#fff;"/><path d="M588.28,861.81v-76.47h20.63c13.45,0,16.59,9.15,16.59,19.78,0,7.82-2.29,15.46-10.78,18.53l11.96,38.17h-7.29l-11.28-37.33h-12.99v37.33h-6.84Zm6.84-42.75h13.75c8.18,0,9.8-7.02,9.8-14.17,0-7.6-1.79-14.13-9.8-14.13h-13.75v28.3Z" style="fill:#fff;"/><path d="M722.7,861.81v-23.73l-16.9-52.74h7.59l12.67,45.85c5.49-19.82,7.1-26.03,12.67-45.85h7.15l-16.36,52.74v23.73h-6.83Z" style="fill:#fff;"/></g><line y1="745.98" x2="745.89" y2="745.98" style="fill:none; stroke:#fff; stroke-miterlimit:10;"/><line y1="900.38" x2="745.89" y2="900.38" style="fill:none; stroke:#fff; stroke-miterlimit:10;"/></g></svg>